<?xml version="1.0" encoding="iso-8859-1"?>
<!-- Generator: Adobe Illustrator 18.0.0, SVG Export Plug-In . SVG Version: 6.00 Build 0)  -->
<!DOCTYPE svg PUBLIC "-//W3C//DTD SVG 1.1//EN" "http://www.w3.org/Graphics/SVG/1.1/DTD/svg11.dtd">
<svg version="1.1" id="Capa_1" xmlns="http://www.w3.org/2000/svg" xmlns:xlink="http://www.w3.org/1999/xlink" x="0px" y="0px"
	 viewBox="0 0 433.934 433.934" style="enable-background:new 0 0 433.934 433.934;" xml:space="preserve">
<g>
	<path d="M391.652,166.671H147.47c-4.18-5.104-8.958-9.698-14.228-13.675l239.931-88.93c1.492-0.553,2.704-1.676,3.368-3.122
		s0.726-3.098,0.173-4.59L357.276,3.917c-1.151-3.107-4.602-4.692-7.711-3.541L40.195,115.047c-3.105,1.152-4.689,4.604-3.538,7.711
		c0,0,5.805,18.751,5.805,19.646v91.638c0,3.313,2.687,6,6,6h13.581v187.893c0,3.313,2.687,6,6,6h317.28c3.313,0,6-2.687,6-6
		V234.596h0.329c3.313,0,6-2.687,6-6v-55.925C397.652,169.358,394.966,166.671,391.652,166.671z M385.652,222.596h-46.715
		l43.925-43.925h2.79V222.596z M194.496,222.596l43.925-43.925h21.984l-43.925,43.925H194.496z M277.374,178.671h49.566
		l-43.925,43.925h-49.566L277.374,178.671z M343.909,178.671h21.984l-43.925,43.925h-21.984L343.909,178.671z M221.452,178.671
		l-43.925,43.925h-11.43v-3.819c0-14.553-3.809-28.228-10.459-40.105H221.452z M308.32,75.307l-46.473,17.225l-56.454-25.921
		l46.473-17.226L308.32,75.307z M267.78,43.487l20.611-7.64l56.456,25.921l-20.612,7.64L267.78,43.487z M245.932,98.431
		l-20.611,7.639l-56.453-25.92l20.611-7.64L245.932,98.431z M209.407,111.969l-46.474,17.226l-56.452-25.92l46.473-17.226
		L209.407,111.969z M147.018,135.093l-20.611,7.64l-56.451-25.92l20.611-7.639L147.018,135.093z M363.377,54.9l-2.617,0.97
		l-56.456-25.921l43.804-16.236L363.377,54.9z M54.039,122.71l29.833,13.698c-0.049,0-0.098-0.004-0.147-0.004H54.517l-4.522-12.193
		L54.039,122.71z M54.462,148.404h29.263c38.804,0,70.373,31.569,70.373,70.373v9.265H54.462V148.404z M379.323,421.934H74.043
		V240.042h86.055c3.126,0,5.692-2.392,5.972-5.445h213.254V421.934z"/>
	<rect x="96.119" y="294.692" width="259.829" height="12"/>
	<rect x="96.119" y="361.934" width="259.829" height="12"/>
	<rect x="177.293" y="257.934" width="12" height="32"/>
	<rect x="269.293" y="257.934" width="12" height="32"/>
	<path d="M78.223,158.863c-8.822,0-16,7.178-16,16s7.178,16,16,16s16-7.178,16-16S87.045,158.863,78.223,158.863z M78.223,178.863
		c-2.206,0-4-1.794-4-4s1.794-4,4-4s4,1.794,4,4S80.429,178.863,78.223,178.863z"/>
</g>
<g>
</g>
<g>
</g>
<g>
</g>
<g>
</g>
<g>
</g>
<g>
</g>
<g>
</g>
<g>
</g>
<g>
</g>
<g>
</g>
<g>
</g>
<g>
</g>
<g>
</g>
<g>
</g>
<g>
</g>
</svg>
